<?xml version="1.0" standalone="no"?>
<!DOCTYPE svg PUBLIC "-//W3C//DTD SVG 20010904//EN"
 "http://www.w3.org/TR/2001/REC-SVG-20010904/DTD/svg10.dtd">
<svg version="1.0" xmlns="http://www.w3.org/2000/svg"
 width="400.000000pt" height="80.000000pt" viewBox="0 0 400.000000 80.000000"
 preserveAspectRatio="xMidYMid meet">

<g transform="translate(0.000000,80.000000) scale(0.100000,-0.100000)"
fill="#000000" stroke="none">
<path d="M0 400 l0 -400 2000 0 2000 0 0 400 0 400 -2000 0 -2000 0 0 -400z
m1040 269 c180 -79 231 -314 100 -463 -28 -32 -77 -66 -95 -66 -3 0 -5 108 -5
240 l0 240 -115 0 c-63 0 -115 -2 -115 -5 0 -2 33 -26 73 -54 40 -27 78 -55
85 -64 9 -11 12 -54 10 -157 l-3 -142 -72 -40 -72 -39 -40 21 c-52 26 -105 79
-133 133 -19 34 -23 58 -23 127 0 73 4 92 27 136 74 140 233 196 378 133z
m955 -20 c152 -78 180 -336 50 -462 -89 -87 -234 -89 -329 -6 -123 108 -122
336 2 439 22 19 55 40 73 47 52 20 148 11 204 -18z m504 21 c55 -15 99 -52
122 -99 29 -62 23 -86 -21 -86 -31 0 -35 3 -41 32 -14 68 -63 97 -156 91 -66
-4 -86 -15 -98 -56 -11 -38 37 -74 160 -116 60 -21 122 -47 137 -58 85 -60 75
-189 -18 -233 -84 -40 -251 -27 -316 25 -32 25 -55 73 -60 125 -3 40 -3 40 35
43 34 3 37 1 37 -23 0 -14 7 -41 15 -61 20 -49 67 -67 166 -62 87 4 119 22
119 69 0 61 -18 74 -164 120 -110 35 -150 58 -172 100 -23 44 -14 113 18 146
47 47 156 67 237 43z m-1159 -241 l0 -240 128 2 127 1 3 -29 3 -30 -83 -6
c-46 -4 -115 -7 -155 -7 -106 0 -103 -9 -103 291 0 135 3 249 7 252 3 4 21 7
40 7 l33 0 0 -241z m1778 209 l-3 -33 -87 -3 -88 -3 -2 -232 -3 -232 -37 -3
-38 -3 0 235 0 235 -87 3 -88 3 -3 33 -3 32 221 0 221 0 -3 -32z"/>
<path d="M936 321 c-4 -7 -5 -15 -2 -18 9 -9 19 4 14 18 -4 11 -6 11 -12 0z"/>
<path d="M1790 592 c-20 -11 -46 -38 -60 -63 -21 -37 -25 -57 -25 -129 0 -72
4 -92 25 -129 31 -54 78 -81 143 -81 68 0 111 21 144 71 26 39 28 50 28 138 0
106 -14 145 -68 184 -39 30 -140 35 -187 9z"/>
</g>
</svg>
